<?xml version="1.0" encoding="UTF-8"?>
<svg version="1.1" viewBox="0 0 2000 2000" width="1280" height="1280" xmlns="http://www.w3.org/2000/svg">
<path transform="translate(0)" d="m0 0h2e3v2e3h-2e3z"/>
<path transform="translate(1194,284)" d="m0 0h28l47 2 23 2 32 4 41 7 43 10 35 10 36 12 24 9 26 11 20 9 25 12 22 12 23 13 16 10 27 18 17 12 21 16 16 13 11 9 13 12 12 11 13 12 16 16 7 8 13 14 9 14 2 2v3l-36 18-36 19-36 18-19 10-27 14-22 11-19 10-20 10-19 10-15 8-16 8-19 10-22 11h-5l-14-12-16-12-16-11-13-8-21-12-19-10-30-13-30-11-25-7-26-6-26-4-29-3h-62l-31 3-25 4-34 8-25 8-22 8-27 12-20 10-21 12-19 12-19 14-10 8-14 12-15 14-14 14-7 8-11 12-11 14-6 8 1 5 119 287 15 36 19 46 30 72 19 46 30 72 17 41 18 44 7 16 6 2 29 4 35 2h32l34-2 36-5 38-9 26-8 24-9 36-17 24-14 15-9 20-14 12-9 14-12 12-11 8-7 10-10 7-8 11-12 13-17 12-16 12-19 11-19 16-32 1-3h-208l-285-1v-326l1-1h443l241-1 101-1h62l2 5 8 43 6 45 2 27v92l-3 37-5 37-8 40-10 40-12 38-10 27-12 29-11 24-8 16-15 29-15 25-16 25-12 17-11 15-11 14-13 16-9 11-12 13-9 10-8 8-7 8-14 14-8 7-16 15-11 9-14 12-17 13-16 12-20 14-22 14-27 16-27 15-32 16-25 11-30 12-34 12-29 9-44 11-35 7-48 7-43 5-14 1h-347l-3-2-6-16-19-46-17-41-15-37-15-36-16-39-38-92-18-44-38-92-18-44-16-39-17-41-15-37-14-34v-2h-2l-3 9-17 41-22 54-16 39-17 41-14 34-16 39-17 41-18 44-17 41-16 39-17 41-18 44-17 41-14 34-19 46-5 12-2 2h-363l1-5 12-28 15-37 30-72 12-29 17-41 15-36 19-46 15-36 34-82 15-36 17-41 15-36 12-29 34-82 15-36 34-82 10-24 12-29 15-36 51-123 15-36 17-41 15-36 17-41 15-36 17-41 19-46 15-36 12-29 15-36 17-41 15-36 17-41 13-31 9-21 3 1 6 16 17 40 12 29 18 43 15 37 3 7 5-3 21-16 18-13 24-16 19-12 17-10 24-13 19-10 25-12 38-16 33-12 28-9 41-11 42-9 44-7 27-3 34-2z" fill="#D8DAD8"/>
<path transform="translate(1194,284)" d="m0 0h28l47 2 23 2 32 4 41 7 43 10 35 10 36 12 24 9 26 11 20 9 25 12 22 12 23 13 16 10 27 18 17 12 21 16 16 13 11 9 13 12 12 11 13 12 16 16 7 8 13 14 9 14 2 2v3l-36 18-36 19-36 18-19 10-27 14-22 11-19 10-20 10-19 10-15 8-16 8-19 10-22 11h-5l-14-12-16-12-16-11-13-8-21-12-19-10-30-13-30-11-25-7-26-6-26-4-29-3h-62l-31 3-25 4-34 8-25 8-22 8-27 12-20 10-21 12-19 12-19 14-10 8-14 12-15 14-14 14-7 8-11 12-11 14-6 8-4-4-16-38-20-48-15-37-17-40-15-37-13-31-28-68-10-23-4-9 1-2 5-3 21-16 18-13 24-16 19-12 17-10 24-13 19-10 25-12 38-16 33-12 28-9 41-11 42-9 44-7 27-3 34-2z" fill="#58D2B6"/>
<path transform="translate(1120,955)" d="m0 0h1v207l-1 43h493l1 2-2 2v-2h-208l-285-1v-117z" fill="#58D2B6"/>
</svg>
